Patient4_TMGait_0pt6_02_left_47_EMG.mot
version=1
nRows=20
nColumns=33
inDegrees=no
endheader
time	1LAddLong	2LGlutMax	3LGlutMed	4LIliopsoas	5LSemiMemb	6LBicFemLong	7LRecFem	8LVastMed	9LVastLat	10LGasMed	11LTibAnt	12lTibPost	13LPeroneusLong	14LSol	15LExtDigLong	16LFlexDigLong	17RAddLong	18RGlutMax	19RGlutMed	20RIliopsoas	21RSemiMemb	22RBicFemLong	23RRecFem	24RVastMed	25RVastLat	26RGasMed	27RTibAnt	28RTibPost	29RPeroneusLong	30RSol	31RExtDigLong	32RFlexDigLong
58.165	-0.002289	-0.10117	-0.078888	-0.004883	-0.082397	-0.28732	0.3775	0.005188	-0.023651	-0.00061	0.023193	0.006561	-0.064545	-0.11612	0.15747	0.033875	0.035095	0.29816	1.2312	-0.16342	0.21301	0.45792	-0.63904	-0.52216	0.63248	-0.017548	-0.1712	-0.021362	-1.0434	0.061798	-0.010681	0.010681
58.166	0.03479	-0.12009	0.047607	-0.008087	0.1004	-0.38544	0.36514	0.000763	-0.032806	-0.38483	0.039978	0.012207	-0.041351	-0.018005	0.15854	0.060425	0.069733	0.088196	0.89096	-0.21683	0.13519	0.38895	-0.6308	-0.44022	0.26001	0.007324	-0.027924	-0.020599	-0.97946	0.14633	-0.00412	0.003357
58.167	0.047455	-0.12405	0.047913	-0.000153	0.1619	-0.21378	0.38681	-0.001526	-0.041656	-0.35156	0.040436	0.00824	0.001221	-0.023193	0.1088	0.064087	0.089874	-0.16937	0.46158	-0.12543	0.48614	0.30945	-0.45868	-0.32166	-0.25452	-0.002289	0.006409	0.006561	-1.3071	0.007477	-0.000153	-0.002136
58.168	0.037994	-0.1091	0.083923	0.006409	0.13901	0.025787	0.41672	0.002594	-0.064087	-0.24338	-0.05188	0.003357	0.027771	-0.05127	0.11139	-0.11429	0.070496	-0.28564	0.34439	0.036774	0.59326	0.30624	-0.34439	-0.40085	-0.7077	0.048523	0.06134	0.041351	-0.9108	-0.18158	-0.003052	-0.000305
58.169	0.033264	-0.047607	0.067902	0.039978	0.08255	0.17593	0.40253	0.003204	-0.05249	-0.39383	-0.029297	0.007782	0.036926	0.009003	0.092316	-0.14435	0.002289	-0.38711	-0.23865	0.28412	0.49454	0.4361	-0.38986	-0.31632	-0.54382	0.040588	0.042572	-0.037994	-0.69946	-0.24506	-0.003357	0.002594
58.17	0.028687	-0.064392	0.06073	0.028229	0.007935	0.15152	0.37781	-0.001984	-0.044556	-0.078125	-0.024109	0.00473	0.09201	-0.000153	0.075226	0.10651	0.060883	-0.48202	-0.91721	0.23331	0.45959	0.14999	-0.27145	-0.16556	-0.54749	0.044861	-0.054169	-0.005798	0.04303	-0.010681	-0.001068	0.000763
58.171	0.032959	-0.057373	0.039215	0.009003	0.017853	0.010223	0.3479	-0.008087	-0.027313	0.12238	-0.067444	0.020447	0.17425	-0.15106	0.13046	0.061951	0.1535	-0.69168	-1.6751	0.16922	0.32562	0.16419	-0.038605	-0.18509	-0.42374	-0.01358	-0.090637	-0.016937	0.3865	0.11658	-0.002289	0.005646
58.172	0.040894	-0.033264	0.015106	0.001526	0.013885	-0.077057	0.35233	-0.003662	-0.019073	0.030212	-0.078278	0.046844	0.1918	-0.11429	0.098267	0.031738	0.16068	-0.63828	-1.6194	0.045166	0.2713	0.53497	0.048065	-0.3772	-0.30609	-0.031586	-0.04715	-0.011597	0.28473	0.10254	-0.001831	0.002747
58.173	0.037537	-0.011902	0.018311	0.003967	0.00885	-0.094299	0.37857	-0.006714	-0.019073	-0.014648	-0.011902	0.0354	0.1593	0.13733	0.027618	0.030823	0.10651	-0.72189	-0.93658	-0.10422	0.11993	0.88547	0.20325	-0.45197	-0.2475	0.010071	-0.038452	-0.040741	0.30456	-0.025787	-0.001831	0.00061
58.174	0.030365	0.033112	0.060272	0.006104	0.025024	-0.020905	0.37933	-0.000458	-0.013123	-0.027008	0.009308	0.035553	0.13565	0.22446	0.011749	0.013123	-0.092468	-0.90286	0.14938	-0.13657	0.09491	1.1926	0.10696	-0.42038	-0.2182	0.004272	-0.058899	-0.029755	0.36285	-0.031433	-0.004272	-0.00824
58.175	0.01358	0.040741	0.13733	0.011749	0.056763	0.10788	0.41412	0.001984	-0.009766	-0.008698	0.10254	0.028687	0.10559	0.21942	0.053406	0.027161	-0.24704	-0.87982	-0.52612	-0.023804	0.12177	1.1942	0.049744	0.1651	-0.20508	-0.018005	-0.074768	0.07309	0.26154	-0.037842	-0.003357	-0.005951
58.176	0.009155	-0.000763	0.12512	-0.001221	0.043335	0.15427	0.37384	0.006409	-0.004578	0.0177	-0.015411	0.020142	0.04303	0.16037	0.008698	0.010986	-0.29007	-0.91415	0.083466	0.09491	0.43427	0.8876	-0.17136	0.42908	-0.12314	-0.008698	-0.0383	0.030212	-0.13382	-0.084076	-0.001526	-0.005341
58.177	0.000458	-0.030975	0.11063	-0.002289	0.040588	0.074463	0.36362	0.008392	-0.010376	0.018921	-0.047455	0.012512	0.01709	0.21194	0	0.016174	-0.22354	-0.7724	0.14587	0.080566	0.52429	0.70679	-0.10956	0.31296	-0.1358	0.012207	0.008087	-0.007477	-0.64102	-0.044403	-0.002594	-0.012817
58.178	-0.024261	-0.065918	0.13062	-0.005646	0.040283	0.074768	0.34134	0.00885	0.003662	0.01358	0.028534	0.001678	0.041046	0.2301	-0.080261	0.016479	-0.11551	-0.63522	0.46493	-0.27115	0.47211	0.10681	0.07843	0.042877	0.034943	0.013123	0.039063	-0.014801	-0.80002	0.031586	-0.001068	-0.007629
58.179	0.003662	-0.028076	0.16769	-0.000305	0.016022	0.15335	0.31326	0.003204	0.016174	-0.00412	0.12375	0.006714	0.047913	0.21591	-0.22324	0.012817	-0.10544	-0.3627	-0.30365	-0.29923	0.26886	-0.72891	-0.00473	0.09552	0.29572	-0.02243	0.096283	0.000458	-1.2206	0.0177	-0.001526	-0.00885
58.18	-0.029144	0.016327	0.1741	-0.006256	0.005951	0.1593	0.3125	0.010529	0.010376	-0.014496	0.076599	0.003357	0.024261	0.17487	-0.22766	0.024872	-0.088959	-0.19852	-0.737	-0.058441	0.21423	-1.2506	-0.044708	-0.03952	0.22858	-0.023499	0.14358	-0.007172	-1.2552	-0.00946	-0.001831	-0.009766
58.181	0.001068	0.032654	0.24597	0.009613	-0.013733	0.045624	0.27252	0.007324	0.014954	-0.008698	0.028381	0.00061	0.002441	0.19119	-0.13763	0.006561	0.012054	0.07782	-0.57434	0.21866	0.13641	-1.1147	-0.16403	-0.13931	0.10925	-0.006409	0.11826	-0.016479	0.33264	-0.036621	0.000153	-0.005188
58.182	-0.005798	0.03952	0.29144	0.041046	0.006256	0.018463	0.25406	0.009308	0.036774	0.010986	0.020142	-0.001984	0.00824	0.1651	-0.072632	0.014496	0.045319	0.22659	-0.015717	0.26871	0.15686	-1.1743	-0.25696	-0.38773	0.10803	0.00473	-0.011292	0.070496	2.8001	-0.088654	-0.004425	-0.000458
58.183	-0.005646	0.041351	0.30868	0.01358	0.019684	0.049591	0.23743	0.002899	0.047455	0.027161	0.1001	0.005035	-0.018311	0.13367	0.073547	0.022583	0.075226	0.10803	0.07019	0.08606	0.12085	-1.0709	-0.05722	-0.793	0.041046	0.003662	0.007935	0.010376	1.7857	-0.046082	-0.006256	0.003052
58.184	-0.000153	0.085449	0.23636	-0.00946	-0.02655	0.027924	0.20187	0.007782	0.045471	0.031128	0.078888	0.006104	0.001373	0.09903	-0.0177	0.014801	0.057983	0.12344	0.15381	-0.070343	0.029907	-0.88638	0.031433	-0.81711	-0.31769	0.015411	0.068512	-0.024109	0.050354	-0.063934	-0.001526	-0.004272
